<svg preserveAspectRatio="none" overflow="visible" style="display: block;" width="16" height="16" viewBox="0 0 16 16" fill="none" xmlns="http://www.w3.org/2000/svg">
<g id="fi_5968830" clip-path="url(#clip0_0_25)">
<path id="Vector" d="M8.53503 7.72681L12.1356 12.8769H10.6579L7.71977 8.67442V8.67416L7.28841 8.05725L3.85617 3.14771H5.33386L8.10367 7.10989L8.53503 7.72681Z" fill="black"/>
<path id="Vector_2" d="M14.2712 0H1.72883C0.774051 0 0 0.774051 0 1.72883V14.2712C0 15.2259 0.774051 16 1.72883 16H14.2712C15.2259 16 16 15.2259 16 14.2712V1.72883C16 0.774051 15.2259 0 14.2712 0ZM10.2053 13.5683L7.23208 9.24114L3.50957 13.5683H2.54748L6.80489 8.61966L2.54748 2.42347H5.79469L8.61014 6.52101L12.1351 2.42347H13.0972L9.03746 7.14262H9.0372L13.4525 13.5683H10.2053Z" fill="black"/>
</g>
<defs>
<clipPath id="clip0_0_25">
<rect width="16" height="16" fill="white"/>
</clipPath>
</defs>
</svg>
